<svg width="20" height="20" viewBox="0 0 20 20" fill="none" xmlns="http://www.w3.org/2000/svg">
<path d="M6.04001 0.319824C2.88521 0.319824 0.320007 2.88502 0.320007 6.03982V13.9598C0.320007 17.1146 2.88521 19.6798 6.04001 19.6798H13.96C17.1148 19.6798 19.68 17.1146 19.68 13.9598V6.03982C19.68 2.88502 17.1148 0.319824 13.96 0.319824H6.04001ZM15.28 3.83982C15.764 3.83982 16.16 4.23582 16.16 4.71982C16.16 5.20382 15.764 5.59982 15.28 5.59982C14.796 5.59982 14.4 5.20382 14.4 4.71982C14.4 4.23582 14.796 3.83982 15.28 3.83982ZM10 5.15982C12.6708 5.15982 14.84 7.32903 14.84 9.99983C14.84 12.6706 12.6708 14.8398 10 14.8398C7.32921 14.8398 5.16001 12.6706 5.16001 9.99983C5.16001 7.32903 7.32921 5.15982 10 5.15982ZM10 6.03982C7.81761 6.03982 6.04001 7.81743 6.04001 9.99983C6.04001 12.1822 7.81761 13.9598 10 13.9598C12.1824 13.9598 13.96 12.1822 13.96 9.99983C13.96 7.81743 12.1824 6.03982 10 6.03982Z" fill="#63ACFC"/>
</svg>
