<svg width="164" height="43" viewBox="0 0 164 43" fill="none" xmlns="http://www.w3.org/2000/svg">
<g clip-path="url(#clip0)">
<path d="M12.7316 21.3293C12.7316 13.6788 17.701 7.95798 25.2832 7.95798C31.1577 7.95798 36.2125 11.2026 36.2125 15.1474C36.2125 16.8722 35.0513 18.1188 33.0874 18.1188C28.3741 18.1188 28.4595 10.622 23.9341 10.622C21.5604 10.622 19.3745 12.9957 19.3745 17.1796C19.3745 24.5227 23.5584 29.3043 27.8447 29.3043C31.3455 29.3043 33.1216 26.8964 34.2145 25.3083C34.9317 24.4715 36.332 24.7447 36.2808 25.9913C36.093 30.7729 32.7459 35.4008 25.6589 35.4008C18.1108 35.4179 12.7316 28.6383 12.7316 21.3293Z" fill="#63ACFC"/>
<path d="M59.5227 34.1712V34.3249C59.5227 34.7689 59.1811 35.0421 58.6176 35.0421H51.1208C50.5572 35.0421 50.2157 34.786 50.2157 34.3249V34.1712C50.2157 33.0782 51.6502 32.6342 51.5648 30.8924L51.1891 23.8908C51.0012 20.4583 50.284 19.0751 48.5592 19.0751C46.9027 19.0751 46.1172 20.5437 46.1172 22.7296V30.9436C46.1172 32.6684 47.8078 33.0953 47.8078 34.1883V34.3419C47.8078 34.786 47.4321 35.0592 46.9027 35.0592H38.7228C38.1935 35.0592 37.8519 34.803 37.8519 34.3419V34.1883C37.8519 33.0953 39.5084 32.6855 39.5084 30.9436V13.4567C39.5084 11.6807 37.6641 11.4929 37.6641 10.4512V10.3316C37.6641 9.88762 38.0056 9.49485 38.535 9.27285L44.4949 6.64299C45.3658 6.26729 45.9294 6.57468 45.9294 7.42853V18.3578C47.0223 17.2308 48.6105 16.5818 50.5231 16.5818C53.8019 16.5818 57.2685 18.4261 57.6784 24.1128L58.1736 30.8924C58.3102 32.6342 59.5227 33.0782 59.5227 34.1712Z" fill="#63ACFC"/>
<path d="M61.0596 34.3249V34.1712C61.0596 33.0783 62.5624 32.6343 62.5624 30.8924V23.7371C62.5624 22.0123 61.0596 21.483 61.0596 20.5779V20.4242C61.0596 20.0143 61.4011 19.8265 61.9305 19.5532L67.6172 16.7697C68.6759 16.2403 69.3078 16.838 69.3078 17.5552V30.9095C69.3078 32.6343 70.9984 33.0953 70.9984 34.1883V34.342C70.9984 34.786 70.6227 35.0592 70.0592 35.0592H61.9647C61.4011 35.0421 61.0596 34.786 61.0596 34.3249ZM61.6573 10.9806C61.6573 8.82886 63.382 7.20654 65.9948 7.20654C68.5564 7.20654 70.2812 8.82886 70.2812 10.9806C70.2812 13.0981 68.5564 14.7546 65.9948 14.7546C63.3991 14.7375 61.6573 13.081 61.6573 10.9806Z" fill="#63ACFC"/>
<path d="M88.7927 20.3217C88.7927 22.2002 88.0755 23.8566 85.8896 23.8566C82.4571 23.8566 84.0112 20.3217 82.1156 20.3217C80.9031 20.3217 80.7153 22.2856 80.7153 23.942V30.9436C80.7153 32.6684 82.7133 33.1295 82.7133 34.1883V34.342C82.7133 34.786 82.3376 35.0592 81.8082 35.0592H73.7137C73.1843 35.0592 72.8086 34.803 72.8086 34.342V34.1883C72.8086 33.1295 74.3114 32.6855 74.3114 30.9436V23.4468C74.3114 21.6708 72.5012 21.5342 72.5012 20.4412V20.3217C72.5012 19.8777 72.8086 19.5362 73.3722 19.2288L78.6831 16.7355C79.6565 16.2915 80.0322 16.8038 80.0322 17.5723V20.3217C80.869 17.9138 82.6279 16.5989 85.2236 16.5989C87.4607 16.5818 88.7927 18.2041 88.7927 20.3217Z" fill="#63ACFC"/>
<path d="M110.856 25.701C110.856 31.6609 106.638 35.4179 101.959 35.4179C100.371 35.4179 99.1415 35.0422 98.1169 34.3249V38.8845C98.1169 40.6093 99.8075 41.0704 99.8075 42.1291V42.2828C99.8075 42.7268 99.4318 43.0001 98.9024 43.0001H90.9104C90.381 43.0001 90.0053 42.7439 90.0053 42.2828V42.1291C90.0053 41.0704 91.5081 40.6264 91.5081 38.8845V23.4468C91.5081 21.8245 89.6979 21.6367 89.6979 20.5437V20.3559C89.6979 19.9119 90.0394 19.5704 90.5688 19.263L95.5382 16.821C96.6653 16.2916 97.1264 16.821 97.1264 17.5723V18.6653C98.0656 17.3503 99.8075 16.5989 101.942 16.5989C106.228 16.5819 110.856 19.5704 110.856 25.701ZM104.23 28.8261C104.23 24.7618 103.138 18.4262 100.388 18.4262C99.039 18.4262 98.1339 19.6387 98.1339 21.3976V28.2113C98.1339 31.4047 99.7221 33.5565 101.379 33.5565C103.291 33.5735 104.23 31.9171 104.23 28.8261Z" fill="#63ACFC"/>
<path d="M112.786 34.3249V34.1712C112.786 33.0783 114.289 32.6343 114.289 30.8924V23.7371C114.289 22.0123 112.786 21.483 112.786 20.5779V20.4242C112.786 20.0143 113.128 19.8265 113.657 19.5532L119.344 16.7697C120.402 16.2403 121.034 16.838 121.034 17.5552V30.9095C121.034 32.6343 122.725 33.0953 122.725 34.1883V34.342C122.725 34.786 122.349 35.0592 121.786 35.0592H113.691C113.11 35.0421 112.786 34.786 112.786 34.3249ZM113.384 10.9806C113.384 8.82886 115.108 7.20654 117.721 7.20654C120.283 7.20654 122.008 8.82886 122.008 10.9806C122.008 13.0981 120.283 14.7546 117.721 14.7546C115.108 14.7375 113.384 13.081 113.384 10.9806Z" fill="#63ACFC"/>
<path d="M124.262 30.9778C124.262 29.2872 125.423 28.5699 126.943 28.5699C130.717 28.5699 129.436 33.7272 132.561 33.7272C133.688 33.7272 134.593 33.1636 134.593 31.6609C134.593 26.7256 124.603 29.6287 124.603 22.3197C124.603 18.9726 127.848 16.5989 132.544 16.5989C137.326 16.5989 140.451 18.6652 140.451 21.1243C140.451 22.4393 139.324 23.4297 137.923 23.4297C134.269 23.4297 135.481 18.3408 132.869 18.3408C131.707 18.3408 131.093 19.3995 131.093 20.4925C131.093 25.6497 140.741 22.9345 140.741 29.8678C140.741 32.9929 137.77 35.4007 132.527 35.4007C127.814 35.3837 124.262 33.6076 124.262 30.9778Z" fill="#63ACFC"/>
<path d="M164 34.1712V34.3249C164 34.7689 163.658 35.0421 163.095 35.0421H155.598C155.035 35.0421 154.693 34.786 154.693 34.3249V34.1712C154.693 33.0782 156.127 32.6342 156.042 30.8924L155.666 23.8908C155.479 20.4583 154.761 19.0751 153.037 19.0751C151.38 19.0751 150.594 20.5437 150.594 22.7296V30.9436C150.594 32.6684 152.285 33.0953 152.285 34.1883V34.3419C152.285 34.786 151.909 35.0592 151.38 35.0592H143.2C142.671 35.0592 142.329 34.803 142.329 34.3419V34.1883C142.329 33.0953 143.986 32.6855 143.986 30.9436V13.4567C143.986 11.6807 142.141 11.4929 142.141 10.4512V10.3316C142.141 9.88762 142.483 9.49485 143.012 9.27285L148.972 6.64299C149.843 6.26729 150.407 6.57468 150.407 7.42853V18.3578C151.5 17.2308 153.088 16.5818 155 16.5818C158.279 16.5818 161.746 18.4261 162.156 24.1128L162.651 30.8924C162.805 32.6342 164 33.0782 164 34.1712Z" fill="#63ACFC"/>
<path d="M14.8832 3.58618C14.8832 1.60524 13.278 0 11.2971 0C9.31613 0 7.71088 1.60524 7.71088 3.58618C7.71088 3.65449 7.71088 3.70572 7.72796 3.77403C7.72796 3.77403 7.72796 3.77403 7.71088 3.77403L6.17395 11.4245L10.6994 10.7927C10.7677 10.7756 10.8018 10.861 10.7506 10.8952L9.76013 11.5782C11.1775 10.9293 12.1509 9.51191 12.1509 7.85544C12.1509 7.59929 12.1168 7.32605 12.0826 7.08697C13.3122 6.81374 14.3026 5.90866 14.6954 4.73034L14.3709 3.92772L14.8832 3.58618Z" fill="#63ACFC"/>
<path d="M14.8833 3.58618L14.371 3.92772L14.6954 4.73034L14.7125 4.78158L15.9079 4.44003L14.8833 3.58618Z" fill="#63ACFC"/>
<path d="M10.6994 10.7927L6.17401 11.4245L7.71094 3.77403V3.75696L1.73398 0.170776C1.73398 0.170776 0.794742 2.30541 2.7586 4.26927L0.880127 3.58618C0.880127 3.58618 1.0509 5.46466 3.44168 7.17236H1.56321C1.56321 7.17236 2.24629 8.53853 3.95399 9.22161V9.56315L2.92937 9.73392C2.92937 9.73392 3.61245 10.417 4.80785 10.7585L4.46631 11.6124L6.00324 11.4587L4.29554 16.394C4.29554 16.394 5.14939 15.8817 5.49093 15.1986L4.97862 17.2478C4.97862 17.2478 7.71094 15.0278 8.22326 12.637L9.76019 11.5782L10.7507 10.8952C10.8019 10.861 10.7677 10.7927 10.6994 10.7927Z" fill="#63ACFC"/>
</g>
<defs>
<clipPath id="clip0">
<rect width="163.12" height="43" fill="white" transform="translate(0.880127)"/>
</clipPath>
</defs>
</svg>
