<svg width="138" height="26" viewBox="0 0 138 26" fill="none" xmlns="http://www.w3.org/2000/svg">
<path d="M41 0L44.5914 8.05691L53.3637 8.98278L46.811 14.8881L48.6412 23.5172L41 19.11L33.3588 23.5172L35.189 14.8881L28.6363 8.98278L37.4086 8.05691L41 0Z" fill="#FFB951"/>
<path d="M69 0L72.5914 8.05691L81.3637 8.98278L74.811 14.8881L76.6412 23.5172L69 19.11L61.3588 23.5172L63.189 14.8881L56.6363 8.98278L65.4086 8.05691L69 0Z" fill="#FFB951"/>
<path d="M97 0L100.591 8.05691L109.364 8.98278L102.811 14.8881L104.641 23.5172L97 19.11L89.3588 23.5172L91.189 14.8881L84.6363 8.98278L93.4086 8.05691L97 0Z" fill="#FFB951"/>
<path d="M125 0L128.591 8.05691L137.364 8.98278L130.811 14.8881L132.641 23.5172L125 19.11L117.359 23.5172L119.189 14.8881L112.636 8.98278L121.409 8.05691L125 0Z" fill="#FFB951"/>
<path d="M13 0L16.5914 8.05691L25.3637 8.98278L18.811 14.8881L20.6412 23.5172L13 19.11L5.35879 23.5172L7.18904 14.8881L0.636266 8.98278L9.40863 8.05691L13 0Z" fill="#FFB951"/>
</svg>
